<mxfile host="app.diagrams.net" modified="2023-05-13T06:37:09.020Z" agent="Mozilla/5.0 (Windows NT 10.0; Win64; x64) AppleWebKit/537.36 (KHTML, like Gecko) Chrome/113.0.0.0 Safari/537.36" etag="8o5QMSt690VbdcX1YRT9" version="21.3.0" type="github">
  <diagram name="Page-1" id="ux112E8dA0GbW55-Ax_-">
    <mxGraphModel dx="1114" dy="612" grid="1" gridSize="10" guides="1" tooltips="1" connect="1" arrows="1" fold="1" page="1" pageScale="1" pageWidth="850" pageHeight="1100" math="0" shadow="0">
      <root>
        <mxCell id="0" />
        <mxCell id="1" parent="0" />
        <mxCell id="bfpxYdFYlCMB-koJXYH1-1" value="struct Clinic" style="swimlane;fontStyle=0;childLayout=stackLayout;horizontal=1;startSize=26;fillColor=none;horizontalStack=0;resizeParent=1;resizeParentMax=0;resizeLast=0;collapsible=1;marginBottom=0;whiteSpace=wrap;html=1;" vertex="1" parent="1">
          <mxGeometry x="190" y="120" width="310" height="142" as="geometry" />
        </mxCell>
        <mxCell id="bfpxYdFYlCMB-koJXYH1-2" value="+ field: name" style="text;strokeColor=none;fillColor=none;align=left;verticalAlign=top;spacingLeft=4;spacingRight=4;overflow=hidden;rotatable=0;points=[[0,0.5],[1,0.5]];portConstraint=eastwest;whiteSpace=wrap;html=1;" vertex="1" parent="bfpxYdFYlCMB-koJXYH1-1">
          <mxGeometry y="26" width="310" height="26" as="geometry" />
        </mxCell>
        <mxCell id="bfpxYdFYlCMB-koJXYH1-3" value="+ field: address" style="text;strokeColor=none;fillColor=none;align=left;verticalAlign=top;spacingLeft=4;spacingRight=4;overflow=hidden;rotatable=0;points=[[0,0.5],[1,0.5]];portConstraint=eastwest;whiteSpace=wrap;html=1;" vertex="1" parent="bfpxYdFYlCMB-koJXYH1-1">
          <mxGeometry y="52" width="310" height="26" as="geometry" />
        </mxCell>
        <mxCell id="bfpxYdFYlCMB-koJXYH1-5" value="+ field: contactNumber" style="text;strokeColor=none;fillColor=none;align=left;verticalAlign=top;spacingLeft=4;spacingRight=4;overflow=hidden;rotatable=0;points=[[0,0.5],[1,0.5]];portConstraint=eastwest;whiteSpace=wrap;html=1;" vertex="1" parent="bfpxYdFYlCMB-koJXYH1-1">
          <mxGeometry y="78" width="310" height="32" as="geometry" />
        </mxCell>
        <mxCell id="bfpxYdFYlCMB-koJXYH1-4" value="+ field: contactRating" style="text;strokeColor=none;fillColor=none;align=left;verticalAlign=top;spacingLeft=4;spacingRight=4;overflow=hidden;rotatable=0;points=[[0,0.5],[1,0.5]];portConstraint=eastwest;whiteSpace=wrap;html=1;" vertex="1" parent="bfpxYdFYlCMB-koJXYH1-1">
          <mxGeometry y="110" width="310" height="32" as="geometry" />
        </mxCell>
      </root>
    </mxGraphModel>
  </diagram>
</mxfile>
